<svg xmlns="http://www.w3.org/2000/svg" viewBox="0 0 121.27 35"><defs><style>.cls-1{fill:#fff;}</style></defs><title>logo-min</title><g id="Ebene_2" data-name="Ebene 2"><g id="Ebene_1-2" data-name="Ebene 1"><path class="cls-1" d="M20.16,2.83h-.67a.94.94,0,0,0-.86.56L13.57,14.82c-1,2.31-2.34,5.46-2.35,5.49a.71.71,0,0,1-.63.45h-.16a.69.69,0,0,1-.62-.45S8.47,17.1,7.46,14.82L2.39,3.39a.94.94,0,0,0-.86-.56H.87a.85.85,0,0,0-.73.39A.88.88,0,0,0,.07,4L7.7,21.29a2.83,2.83,0,0,0,2.55,1.54h.52a2.82,2.82,0,0,0,2.55-1.54L21,4a.86.86,0,0,0-.07-.82.85.85,0,0,0-.72-.39"/><path class="cls-1" d="M26.78,2.83h-.55a1,1,0,0,0-.95.95v18a1,1,0,0,0,.95.95h.55a1,1,0,0,0,.95-.95V3.78a1,1,0,0,0-.95-.95"/><path class="cls-1" d="M52.87,3.22a.85.85,0,0,0-.73-.39h-.66a1,1,0,0,0-.87.56l-5,11.43c-1,2.31-2.34,5.46-2.36,5.49a.67.67,0,0,1-.62.44h-.16a.67.67,0,0,1-.62-.44s-1.35-3.21-2.36-5.49L34.38,3.39a1,1,0,0,0-.87-.56h-.66a.85.85,0,0,0-.72.39.86.86,0,0,0-.07.82l7.63,17.25a2.82,2.82,0,0,0,2.55,1.54h.52a2.83,2.83,0,0,0,2.55-1.54L52.93,4a.86.86,0,0,0-.06-.82"/><path class="cls-1" d="M66.11,1.54A2.87,2.87,0,0,0,63.55,0H63a2.87,2.87,0,0,0-2.56,1.54L52.86,18.79a.86.86,0,0,0,.07.82.85.85,0,0,0,.72.39h.66a1,1,0,0,0,.9-.56l1.85-4.18c1-2.31,5.48-12.51,5.53-12.61a.69.69,0,0,1,.63-.44h.15a.69.69,0,0,1,.63.44c0,.1,4.52,10.33,5.53,12.61l1.86,4.18a.94.94,0,0,0,.86.56h.69a.86.86,0,0,0,.73-.39.85.85,0,0,0,.06-.82Z"/><path class="cls-1" d="M93.71,2.83h-.66a1,1,0,0,0-.87.56L87.12,14.82c-1,2.31-2.33,5.46-2.35,5.49a.69.69,0,0,1-.62.45H84a.68.68,0,0,1-.62-.45S82,17.1,81,14.82L76,3.39a1,1,0,0,0-.87-.56h-.66a.85.85,0,0,0-.72.39.86.86,0,0,0-.07.82l7.62,17.25a2.85,2.85,0,0,0,2.56,1.54h.52a2.83,2.83,0,0,0,2.55-1.54L94.5,4a.85.85,0,0,0-.79-1.21"/><path class="cls-1" d="M100.31,2.83h-.55a1,1,0,0,0-1,.95v18a1,1,0,0,0,1,.95h.55a1,1,0,0,0,1-.95V3.78a1,1,0,0,0-1-.95"/><path class="cls-1" d="M120.5,14.79a7.88,7.88,0,0,0-3.36-2.28l-.37-.18-4.46-2.06c-.65-.31-1.19-.57-1.72-.86l-.07-.05c-.67-.37-1.5-.83-1.75-1.52a1.6,1.6,0,0,1,.6-1.82,5.08,5.08,0,0,1,2.39-.72,24.36,24.36,0,0,1,2.94-.16c1.29,0,2.71.08,4.48.24h.12a1.41,1.41,0,0,0,.82-.08,1.19,1.19,0,0,0,.55-1.55A1.49,1.49,0,0,0,119.19,3H119c-1.33-.1-2.69-.16-4-.17h-.89c-2.28,0-5.09.2-6.61,1.74a3.93,3.93,0,0,0-1.07,2.89c0,2.59,2.6,3.83,4,4.5.66.32,1.33.62,2,.93l1.08.48c1.09.5,2.23,1,3.31,1.59l.25.13a3.87,3.87,0,0,1,1.77,1.37,2.58,2.58,0,0,1-.07,2.06c-.76,1.54-3.2,1.66-4.52,1.72-.37,0-.77,0-1.18,0-1.7,0-3.43-.16-5.11-.31h0a1.1,1.1,0,0,0-1.19,1,1.17,1.17,0,0,0,.86,1.32,5,5,0,0,0,1.23.13l.42,0,1.51.1c.66,0,1.55.08,2.44.08h.72c2.23-.06,4.51-.33,6.07-1.86a4.83,4.83,0,0,0,.58-5.94"/><path class="cls-1" d="M26.67,35a8.23,8.23,0,0,1-1.22-.07.15.15,0,0,1-.14-.17V30.14a.15.15,0,0,1,.14-.16,8.23,8.23,0,0,1,1.22-.07,1.85,1.85,0,0,1,2,2.09v.91a1.85,1.85,0,0,1-2,2.09m1.43-3c0-1.22-.62-1.57-1.43-1.57l-.74,0v4c.21,0,.43,0,.74,0,.81,0,1.43-.36,1.43-1.57Z"/><path class="cls-1" d="M32.69,35c-.26,0-.92,0-1.32,0-.94,0-1.43-.36-1.43-1.25V31.16c0-.9.49-1.25,1.43-1.25.4,0,1,0,1.32,0a.09.09,0,0,1,.06.09v.34c0,.05,0,.08-.07.08h-1.3c-.71,0-.83.19-.83.7v.93h2.07a.13.13,0,0,1,.13.14v.25a.13.13,0,0,1-.13.14H30.55v1.13c0,.51.12.7.83.7h1.3s.07,0,.07.08v.34a.1.1,0,0,1-.06.1"/><path class="cls-1" d="M36.74,34.91a4.84,4.84,0,0,1-1.12.09c-.82,0-1.77-.44-1.77-2.08V32c0-1.65.95-2.08,1.77-2.08a6.74,6.74,0,0,1,1.13.11c.06,0,.11,0,.11.08v.35s0,.07-.08.07h0c-.24,0-.74-.06-1.13-.06-.66,0-1.17.38-1.17,1.53v.93c0,1.13.51,1.53,1.17,1.53.38,0,.87,0,1.11-.06h0c.07,0,.1,0,.1.11v.28a.13.13,0,0,1-.13.13"/><path class="cls-1" d="M39.47,35c-1,0-1.82-.62-1.82-2.11V32c0-1.49.77-2.11,1.82-2.11s1.82.62,1.82,2.11v.87c0,1.49-.76,2.11-1.82,2.11m1.2-3c0-1.13-.46-1.56-1.2-1.56s-1.2.43-1.2,1.56v.87c0,1.13.46,1.56,1.2,1.56s1.2-.43,1.2-1.56Z"/><path class="cls-1" d="M43.9,35a8.33,8.33,0,0,1-1.22-.07.15.15,0,0,1-.14-.17V30.14a.15.15,0,0,1,.14-.16,8.33,8.33,0,0,1,1.22-.07,1.85,1.85,0,0,1,2,2.09v.91a1.85,1.85,0,0,1-2,2.09m1.43-3c0-1.22-.62-1.57-1.43-1.57l-.74,0v4c.21,0,.43,0,.74,0,.81,0,1.43-.36,1.43-1.57Z"/><path class="cls-1" d="M47.73,35h-.37a.13.13,0,0,1-.12-.13V30.08a.12.12,0,0,1,.12-.12h.37a.12.12,0,0,1,.12.12v4.74a.12.12,0,0,1-.12.13"/><path class="cls-1" d="M52.62,35h-.41a.23.23,0,0,1-.22-.1l-2.08-4s0,0,0,0,0,0,0,0v3.93a.12.12,0,0,1-.12.12h-.35c-.06,0-.12,0-.12-.08V30.14a.19.19,0,0,1,.2-.18h.37c.19,0,.22,0,.27.13L52.2,34v0s0,0,0,0V30.08a.12.12,0,0,1,.12-.12h.36a.12.12,0,0,1,.12.12v4.68a.19.19,0,0,1-.2.19"/><path class="cls-1" d="M57.14,34.9a8.13,8.13,0,0,1-1.34.1c-.84,0-1.75-.55-1.75-2.09V32c0-1.64,1-2.1,1.81-2.1a8.07,8.07,0,0,1,1.28.09c.06,0,.11,0,.11.1v.34s0,.07-.09.07h0a11.63,11.63,0,0,0-1.28-.05c-.63,0-1.19.34-1.19,1.55v.9c0,1.11.5,1.55,1.13,1.55.41,0,.68,0,.84,0V32.49a.12.12,0,0,1,.12-.13h.37a.13.13,0,0,1,.13.13v2.26a.14.14,0,0,1-.12.15"/><path class="cls-1" d="M63.69,30.48H62.38v4.34a.12.12,0,0,1-.12.13h-.37a.12.12,0,0,1-.12-.13V30.48H60.46c-.08,0-.14,0-.14-.11v-.29a.13.13,0,0,1,.14-.12h3.23c.08,0,.13,0,.13.12v.29c0,.07,0,.11-.13.11"/><path class="cls-1" d="M68.29,35H68a.13.13,0,0,1-.13-.13V32.59h-2.3v2.23a.13.13,0,0,1-.14.13H65a.13.13,0,0,1-.14-.13V30.09A.13.13,0,0,1,65,30h.34a.13.13,0,0,1,.14.13V32h2.3V30.09A.13.13,0,0,1,68,30h.34a.13.13,0,0,1,.14.13v4.73a.13.13,0,0,1-.14.13"/><path class="cls-1" d="M72.55,35c-.26,0-.92,0-1.32,0-.94,0-1.43-.36-1.43-1.25V31.16c0-.9.49-1.25,1.43-1.25.4,0,1,0,1.32,0a.09.09,0,0,1,.06.09v.34c0,.05,0,.08-.07.08h-1.3c-.71,0-.83.19-.83.7v.93h2.07a.13.13,0,0,1,.13.14v.25a.13.13,0,0,1-.13.14H70.41v1.13c0,.51.12.7.83.7h1.3s.07,0,.07.08v.34a.1.1,0,0,1-.06.1"/><path class="cls-1" d="M78.49,32.62H76.43v2.2a.13.13,0,0,1-.14.13H76a.14.14,0,0,1-.14-.13V31.16c0-.89.5-1.25,1.44-1.25.39,0,1,0,1.31,0a.1.1,0,0,1,.07.09v.34a.07.07,0,0,1-.08.08h-1.3c-.71,0-.82.19-.82.7v.94h2.06a.13.13,0,0,1,.14.13v.25a.14.14,0,0,1-.14.14"/><path class="cls-1" d="M81.55,35c-1.09,0-1.73-.58-1.73-1.86V30.08A.13.13,0,0,1,80,30h.36a.12.12,0,0,1,.13.12v3.06c0,.86.27,1.34,1.11,1.34s1.1-.47,1.1-1.34V30.08a.12.12,0,0,1,.13-.12h.36a.12.12,0,0,1,.13.12v3.06c0,1.28-.63,1.86-1.72,1.86"/><path class="cls-1" d="M87.7,30.48H86.39v4.34a.12.12,0,0,1-.12.13H85.9a.12.12,0,0,1-.12-.13V30.48H84.46c-.07,0-.13,0-.13-.11v-.29a.12.12,0,0,1,.13-.12H87.7a.12.12,0,0,1,.13.12v.29a.12.12,0,0,1-.13.11"/><path class="cls-1" d="M90.61,35c-1.09,0-1.72-.58-1.72-1.86V30.08A.12.12,0,0,1,89,30h.36a.12.12,0,0,1,.13.12v3.06c0,.86.27,1.34,1.1,1.34s1.11-.47,1.11-1.34V30.08a.12.12,0,0,1,.12-.12h.37a.12.12,0,0,1,.12.12v3.06c0,1.28-.63,1.86-1.72,1.86"/><path class="cls-1" d="M97,35h-.44c-.08,0-.12,0-.17-.08l-1.2-2H95l-.74,0v2a.12.12,0,0,1-.12.13h-.36a.12.12,0,0,1-.12-.13V30.11c0-.09,0-.13.16-.15.29,0,.79-.05,1.18-.05,1.06,0,1.88.35,1.88,1.44v0a1.32,1.32,0,0,1-1,1.36l1.22,2a.1.1,0,0,1,0,.07A.08.08,0,0,1,97,35m-.71-3.6c0-.67-.44-.89-1.28-.89-.21,0-.58,0-.74,0v1.84l.74,0c.83,0,1.28-.21,1.28-.94Z"/><path class="cls-1" d="M101,35c-.26,0-.92,0-1.31,0-1,0-1.44-.36-1.44-1.25V31.16c0-.9.49-1.25,1.44-1.25.39,0,1,0,1.31,0A.09.09,0,0,1,101,30v.34c0,.05,0,.08-.07.08h-1.3c-.71,0-.82.19-.82.7v.93h2.06a.13.13,0,0,1,.13.14v.25a.13.13,0,0,1-.13.14H98.83v1.13c0,.51.11.7.82.7H101s.07,0,.07.08v.34a.1.1,0,0,1-.06.1"/></g></g></svg>